<?xml version="1.0" standalone="no"?>
<!DOCTYPE svg PUBLIC "-//W3C//DTD SVG 20010904//EN"
 "http://www.w3.org/TR/2001/REC-SVG-20010904/DTD/svg10.dtd">
<svg version="1.0" xmlns="http://www.w3.org/2000/svg"
 width="640.000000pt" height="640.000000pt" viewBox="0 0 640.000000 640.000000"
 preserveAspectRatio="xMidYMid meet">
<metadata>
Created by potrace 1.11, written by Peter Selinger 2001-2013
</metadata>
<g transform="translate(0.000000,640.000000) scale(0.100000,-0.100000)"
fill="#000000" stroke="none">
<path d="M0 3200 l0 -3200 3200 0 3200 0 0 3200 0 3200 -3200 0 -3200 0 0
-3200z m3437 1905 c643 -83 1190 -471 1478 -1050 111 -223 168 -417 194 -657
17 -153 15 -1719 -3 -1783 -58 -219 -272 -362 -485 -325 -161 28 -284 125
-345 273 -21 51 -21 63 -27 917 -6 936 -4 895 -62 1065 -53 154 -142 289 -270
411 -201 191 -439 287 -717 287 -278 0 -516 -96 -717 -287 -128 -122 -217
-257 -270 -411 -58 -169 -56 -129 -62 -1070 l-6 -870 -32 -68 c-143 -301 -545
-346 -745 -82 -21 28 -48 75 -61 105 l-22 55 -3 1559 c-3 1710 -6 1605 56
1719 36 66 120 142 199 180 64 30 75 32 178 32 103 0 114 -2 178 -32 110 -52
178 -127 243 -271 1 -2 28 13 60 34 88 57 287 149 404 187 264 87 565 117 837
82z"/>
</g>
</svg>
